<svg xmlns="http://www.w3.org/2000/svg" viewBox="0 0 48 48">
  <g transform="matrix(0.813559 0 0 1.655172 3.254237 34.758621)">
    <rect x="-4" y="-21" width="59" height="29" fill="#FDFDF8"/>
  </g>
  <g transform="matrix(0.096 0 0 0.096 21.696 21.696)">
    <path
      transform="matrix(5.555556 0 0 5.555556 -149.002778 218.716667)"
      d="M0,-70.098C0,-71.554 0.996,-72.549 2.451,-72.549L12.947,-72.549C14.402,-72.549 15.398,-71.554 15.398,-70.098L15.398,-69.485C15.398,-68.029 14.402,-67.034 12.947,-67.034L6.205,-67.034L6.205,-3.065L12.947,-3.065C14.402,-3.065 15.398,-2.07 15.398,-0.614L15.398,-0.001C15.398,1.455 14.402,2.451 12.947,2.451L2.451,2.451C0.996,2.451 0,1.455 0,-0.001L0,-70.098Z"
      fill="#367AFF"/>
    <path
      transform="matrix(5.555556 0 0 5.555556 82.941667 -21.538333)"
      d="M0,16.394C7.661,16.394 13.789,10.342 13.789,1.303C13.789,-7.661 7.661,-13.789 0,-13.789C-7.661,-13.789 -13.636,-7.508 -13.636,1.303C-13.636,10.189 -7.661,16.394 0,16.394M-17.467,35.776C-18.922,35.776 -19.918,34.781 -19.918,33.325L-19.918,-15.781C-19.918,-17.237 -18.922,-18.233 -17.467,-18.233L-15.782,-18.233C-14.326,-18.233 -13.483,-17.314 -13.483,-15.858L-13.483,-12.411C-9.73,-17.16 -4.903,-19.382 1.149,-19.382C11.644,-19.382 20.531,-10.801 20.531,1.303C20.531,13.484 11.721,21.987 1.149,21.987C-4.903,21.987 -9.883,19.689 -13.253,15.245L-13.253,33.325C-13.253,34.781 -14.249,35.776 -15.705,35.776L-17.467,35.776Z"
      fill="#000023"/>
  </g>
</svg>
